<?xml version="1.0" standalone="no"?>

<!DOCTYPE svg PUBLIC "-//W3C//DTD SVG 20010904//EN"

 "http://www.w3.org/TR/2001/REC-SVG-20010904/DTD/svg10.dtd">

<svg version="1.0" xmlns="http://www.w3.org/2000/svg"

 width="1080.000000pt" height="1080.000000pt" viewBox="0 0 1080.000000 1080.000000"

 preserveAspectRatio="xMidYMid meet">

<path fill="#020000" stroke="none" d="
M512 1071

C510 1070 506 1070 504 1070

C494 1070 462 1066 441 1062

C422 1058 424 1059 408 1055

C401 1053 394 1051 394 1052

L393 1052

L393 1051

L393 1050

L392 1050

C389 1050 362 1041 349 1036

C343 1033 337 1031 335 1031

C334 1031 333 1030 333 1030

C333 1030 328 1027 322 1025

C316 1022 308 1018 303 1015

L294 1011

L294 1012

L294 1012

L292 1011

C291 1010 285 1006 279 1002

C266 995 244 981 238 977

L235 975

L235 976

L234 976

L234 975

C234 975 231 972 227 969

C213 959 184 935 177 928

L175 925

L174 926

L173 926

L173 925

L174 925

L164 915

L155 906

L154 907

L154 907

L155 906

L155 906

L150 900

C139 889 121 867 111 853

C108 849 105 846 105 846

L104 846

L104 845

C104 845 101 839 96 832

C91 824 83 812 78 803

C74 794 69 787 69 787

L68 786

L68 786

L69 786

L65 778

C61 770 61 770 38 770

C20 770 14 769 13 768

C11 766 9 553 11 461

C11 413 11 412 13 410

C14 410 18 409 20 409

L25 409

L27 403

C27 400 28 396 28 395

L29 393

L29 393

L30 393

L30 392

C30 389 39 362 44 349

C47 342 49 336 49 335

L49 333

L50 333

L51 333

L54 325

C56 321 60 312 63 306

L69 294

L68 294

L68 294

L69 293

C69 293 74 286 78 277

C83 268 91 256 96 249

C101 241 104 235 104 235

L104 234

L105 234

C105 234 108 231 111 227

C121 213 145 184 152 177

L155 175

L154 174

L154 173

L154 173

L155 174

L164 165

L174 156

L173 155

L173 154

L174 154

L175 155

L177 152

C184 145 213 121 227 111

C231 108 234 105 234 105

L234 104

L235 104

C235 104 241 101 249 96

C256 91 268 83 277 78

C286 74 293 69 293 69

L294 68

L294 68

L294 69

L303 64

C308 62 313 59 313 59

C313 59 314 58 315 58

C316 58 321 56 325 54

C343 46 387 30 392 30

L393 30

L393 29

L393 28

L394 28

C394 29 398 28 402 27

C405 26 410 25 411 24

C412 24 418 23 424 22

C498 5 582 5 656 22

C662 23 668 24 669 24

C670 25 675 26 678 27

C682 28 686 29 686 28

L687 28

L687 29

L687 30

L688 30

C691 30 718 39 731 44

C737 47 743 49 745 49

C746 49 747 50 747 50

C748 51 763 58 765 58

C766 58 767 59 767 59

C767 59 772 62 777 64

L786 69

L786 68

L786 68

L788 69

C789 70 795 74 802 78

C814 85 836 99 842 103

L845 105

L845 104

L846 104

L846 105

C846 105 849 108 853 111

C867 121 889 139 900 150

L906 155

L906 154

L907 154

L907 155

L906 156

L916 165

L925 174

L926 173

L926 173

L925 174

L925 174

L930 180

C941 191 959 213 969 227

C972 231 975 234 975 234

L976 234

L976 235

L975 235

L977 238

C981 244 995 266 1002 279

C1006 285 1010 291 1011 292

L1012 294

L1012 294

L1011 294

L1015 303

C1018 308 1022 316 1025 322

C1027 328 1030 333 1030 333

C1030 333 1031 334 1031 335

C1031 337 1033 343 1036 349

C1041 361 1050 389 1050 392

L1050 393

L1051 393

L1052 393

L1052 394

C1051 394 1053 401 1055 408

C1059 424 1058 422 1062 441

C1069 477 1071 501 1071 540

C1071 572 1070 582 1066 611

C1065 622 1060 650 1058 657

C1057 664 1057 666 1061 680

C1063 688 1065 695 1066 697

C1066 698 1069 710 1073 724

C1080 748 1080 750 1080 760

L1080 770

L1050 770

C1019 770 1019 770 1015 777

C1013 782 1011 785 1011 786

C1011 786 1010 788 1009 791

C1008 793 1004 799 1001 804

C995 814 981 837 977 842

L975 845

L976 845

L976 846

L975 846

C975 846 972 849 969 853

C959 867 935 896 928 903

L925 905

L926 906

L926 907

L925 907

L925 906

L915 916

C910 921 906 925 906 925

L907 926

L906 925

L906 925

L900 930

C889 941 867 959 853 969

C849 972 846 975 846 975

L846 976

L845 976

L845 975

L842 977

C836 981 814 995 801 1003

C793 1007 787 1011 787 1011

L786 1013

L786 1012

L786 1011

L777 1015

C772 1018 764 1022 758 1025

C752 1027 747 1030 747 1030

L747 1031

L746 1031

C746 1030 740 1032 733 1035

C721 1040 691 1050 688 1050

L687 1050

L687 1051

L687 1052

L686 1052

C686 1051 679 1053 672 1055

C656 1059 658 1058 639 1062

C618 1066 593 1069 573 1070

C560 1071 515 1072 512 1071

Z

"/>

<path fill="#330758" stroke="none" d="
M506 998

C482 996 453 992 450 990

C448 988 450 955 454 934

C458 916 467 892 476 879

C481 872 490 861 495 856

L500 852

L502 853

C504 854 510 870 519 898

C529 927 532 942 531 964

C530 977 528 992 526 997

L525 999

L520 999

C518 999 511 998 506 998

Z

M554 997

C554 996 552 990 551 985

C549 971 549 941 551 930

C556 909 575 854 578 852

L580 851

L585 855

C590 860 599 871 604 878

C613 891 622 915 626 933

C630 953 632 988 630 990

C627 992 574 999 558 999

L555 999

L554 997

Z

M530 997

C530 996 531 992 531 988

L533 982

L533 986

L533 990

L534 987

C534 985 535 972 535 958

L535 933

L534 937

L533 942

L533 933

C533 924 530 912 522 889

C507 847 507 846 502 846

C498 846 496 848 487 858

C470 875 458 897 456 912

C456 915 454 923 452 929

L449 941

L449 937

L448 933

L448 943

L448 953

L447 949

L446 945

L446 949

C445 952 445 962 445 971

L445 987

L440 987

L435 987

L438 986

L442 986

L435 985

C428 985 428 985 423 978

C416 965 405 943 401 931

C394 909 394 907 394 867

C395 848 395 831 396 829

L397 825

L397 829

L397 834

L398 828

C399 825 399 819 399 815

L399 808

L389 807

C377 807 366 809 353 816

C346 819 342 822 334 829

C321 842 316 850 312 867

C310 872 310 877 310 898

C310 911 310 923 311 926

L312 930

L312 925

L312 921

L314 928

C314 931 315 935 315 936

L315 938

L313 938

C309 938 274 914 265 906

L260 902

L259 902

L259 902

L250 895

C239 886 188 835 182 826

L177 820

L178 820

L178 820

L173 815

C169 809 151 785 146 775

C143 770 143 770 138 770

C135 770 132 769 131 769

C130 768 126 753 117 723

C115 716 111 702 106 690

C98 664 94 650 94 643

C94 641 93 638 93 636

C90 632 85 627 82 627

L79 627

L79 696

C79 761 79 765 77 767

C75 769 75 769 48 770

C18 770 14 770 12 767

C11 765 11 696 11 455

L11 412

L12 412

L13 413

L14 411

C16 409 16 409 59 409

L103 409

L103 403

C104 390 124 344 140 315

C155 289 178 257 181 257

L182 257

L182 286

L182 315

L183 312

L184 309

L184 311

C185 312 185 316 186 320

C188 331 193 347 199 358

C204 367 206 370 215 379

C225 389 232 395 236 397

C237 398 240 399 242 399

C244 400 250 401 254 402

L262 404

L258 404

L254 405

L262 405

C268 405 271 405 272 404

C273 402 273 390 272 381

L271 375

L271 381

L271 387

L269 375

C268 366 268 351 268 314

C268 264 268 264 270 250

C275 224 282 202 293 174

C301 154 304 147 307 145

L310 143

L311 144

C312 145 312 147 311 153

L309 161

L309 156

L309 151

L308 154

C308 155 307 169 307 184

L307 211

L308 207

L309 203

L309 211

C309 222 312 232 320 249

C326 260 326 261 346 280

C357 291 366 300 367 300

C370 300 372 297 372 292

C372 290 373 282 375 274

L378 260

L379 263

L380 267

L380 260

C380 251 413 102 415 99

L416 98

L417 98

L418 99

L418 123

C418 136 418 150 419 152

L420 157

L420 152

L420 148

L422 161

C427 187 433 205 442 226

C453 251 464 267 480 283

L493 296

L492 296

L491 297

L496 297

C502 297 505 294 505 289

C505 288 507 281 509 275

C527 226 535 200 538 186

L540 179

L540 183

L541 187

L541 177

L541 168

L542 172

L543 177

L543 172

C544 165 544 122 543 115

L543 111

L542 115

L541 120

L541 110

L541 100

L540 104

L540 108

L538 99

C537 94 536 89 536 87

L536 83

L550 82

C558 82 565 82 565 83

C566 83 565 89 563 96

L560 109

L560 105

L559 101

L559 111

L559 121

L558 116

L557 112

L557 143

C557 160 558 176 558 178

L559 181

L559 176

L559 172

L561 183

C565 198 571 219 584 254

C589 270 595 286 595 289

C596 296 598 298 604 297

C608 297 609 296 620 285

C627 277 633 269 639 261

C643 254 648 247 650 244

C655 239 661 226 662 220

C663 218 665 210 667 204

C671 192 677 169 677 164

L677 162

L678 166

L679 171

L679 163

C679 159 679 152 680 147

L681 140

L681 146

L682 153

L682 129

L682 106

L683 106

C685 106 684 101 699 169

C707 207 711 225 711 229

L711 237

L712 233

L713 230

L718 255

C722 271 724 283 724 287

L724 294

L725 290

L726 287

L726 290

C727 292 727 295 727 297

C727 299 728 301 728 302

C731 305 734 303 747 289

C771 265 783 243 789 213

C791 204 791 200 791 185

C790 175 790 165 789 162

L789 156

L790 156

C792 156 795 161 802 178

C816 212 824 239 829 271

C831 282 831 365 829 386

L828 401

L827 395

L826 389

L826 403

L827 417

L830 417

C836 417 851 413 862 408

C871 403 874 402 883 392

C893 382 894 381 900 369

C907 355 909 347 912 333

L914 324

L914 328

L914 333

L915 330

C915 328 916 316 916 304

L916 282

L917 282

C923 282 955 340 968 374

C974 391 976 397 977 404

L977 410

L995 410

C1025 410 1035 413 1048 430

C1064 448 1070 476 1069 520

C1068 549 1065 563 1056 581

C1052 590 1047 596 1038 604

L1031 611

L1035 616

C1042 623 1054 648 1054 655

C1054 657 1055 660 1055 662

C1056 663 1056 665 1056 666

L1056 668

L1057 668

L1058 668

L1057 670

L1057 671

L1058 671

L1059 671

L1058 673

L1058 675

L1059 675

L1060 675

L1059 677

L1059 679

L1060 679

L1061 679

L1060 681

L1060 682

L1061 682

L1062 682

L1061 684

L1061 686

L1062 686

L1063 686

L1062 688

L1062 690

L1063 690

L1064 690

L1063 692

L1063 694

L1064 694

L1065 693

L1064 695

L1064 697

L1065 697

L1066 697

L1065 699

L1065 700

L1066 700

L1067 700

L1066 702

L1066 704

L1067 704

L1068 704

L1067 706

L1067 708

L1068 708

L1069 708

L1068 710

L1068 711

L1069 711

L1070 711

L1069 713

L1069 715

L1070 715

L1071 715

L1070 717

L1070 718

L1071 718

L1072 718

L1071 720

L1071 722

L1072 722

L1073 722

L1072 724

L1072 726

L1073 726

L1074 726

L1073 728

L1073 729

L1074 729

L1075 729

L1074 731

L1074 733

L1075 733

L1076 733

L1075 735

L1075 737

L1076 737

L1077 736

L1077 738

L1076 740

L1077 740

L1078 740

L1077 742

L1077 744

L1078 744

L1079 744

L1078 746

L1078 748

L1079 748

L1080 747

L1080 759

L1080 770

L1045 770

C1020 770 1011 769 1010 768

C1009 768 1007 760 1004 750

C989 698 986 687 983 679

L981 671

L980 672

L979 672

L979 669

L979 667

L976 676

C974 680 973 686 973 688

C973 690 972 695 971 698

L969 705

L968 702

L967 700

L963 710

C959 721 959 721 958 743

C958 762 958 766 956 767

C955 769 953 769 945 769

L935 769

L936 770

L937 770

L934 775

C927 788 912 809 900 825

C889 837 837 889 825 900

C802 918 763 943 758 943

L757 943

L757 940

C757 939 758 934 759 929

L761 921

L761 925

L761 929

L762 925

C763 922 763 910 763 897

C763 877 763 872 761 867

C757 850 752 842 739 829

C728 819 721 815 707 810

C700 808 697 808 687 808

L675 808

L674 818

L674 828

L675 823

L676 819

L676 830

L676 841

L677 836

L678 832

L678 839

C679 848 679 904 678 908

L677 911

L677 907

L677 904

L675 911

C674 915 673 921 673 923

C673 932 661 960 649 979

C644 987 644 987 639 987

L635 987

L635 970

C635 959 634 950 633 943

L632 932

L631 936

L631 940

L628 928

C626 922 624 914 624 911

C623 901 618 891 608 875

C602 867 587 849 583 846

C580 845 576 845 574 847

C571 850 553 900 548 920

C545 933 545 933 545 958

C545 971 546 984 546 986

L547 989

L547 985

L547 981

L549 988

C550 992 550 996 550 996

L549 998

L540 998

L531 998

L530 997

Z

M260 902

C260 902 258 900 256 897

L252 894

L255 898

C258 900 260 902 260 902

L260 902

L260 902

Z

M186 828

C186 828 184 826 182 823

L178 820

L181 824

C184 826 186 828 186 828

L186 828

L186 828

Z

M84 520

L84 490

L82 490

L79 490

L79 520

C79 547 79 550 81 551

L82 552

L83 551

C84 550 84 536 84 520

Z

M1000 536

C1000 534 1001 526 1001 518

C1001 505 1001 503 999 499

C997 496 995 493 994 492

L993 491

L995 493

C996 495 997 497 997 518

L997 541

L998 541

L999 541

L1000 536

Z

M418 99

L417 99

L416 100

L415 101

L416 100

L418 100

L418 99

Z

M653 984

C653 983 657 974 662 963

C672 943 677 931 682 913

C684 903 684 902 684 873

C684 846 684 841 682 829

C681 819 680 814 681 814

C683 811 706 817 718 822

C726 827 745 845 749 853

C755 866 756 873 756 896

C756 907 756 919 755 923

C753 934 750 947 749 949

C744 954 688 976 664 983

C660 983 657 984 656 985

L654 985

L653 984

Z

M412 981

C394 977 349 959 330 949

C323 945 322 944 320 933

C315 912 315 881 319 867

C323 853 326 848 338 836

C350 825 356 821 368 817

C377 814 391 812 392 814

C393 814 392 819 391 828

C389 838 389 846 388 869

C388 894 388 897 390 907

C393 924 399 940 410 961

C415 971 419 980 419 981

C418 982 415 982 412 981

Z

M834 409

C833 409 834 400 835 389

C837 373 837 366 837 327

C837 284 837 282 835 270

C830 242 823 216 811 187

C808 178 805 170 805 169

L805 167

L807 167

C813 167 864 214 887 240

C910 266 908 261 908 293

C908 324 907 334 901 352

C896 367 891 375 879 387

C866 401 859 405 844 409

C837 410 834 410 834 409

Z

M250 395

C238 391 231 386 219 374

C207 362 202 355 197 340

C191 322 190 311 190 279

C190 237 188 243 211 221

C221 210 234 198 240 193

C260 175 287 155 291 155

L293 155

L293 157

C293 157 291 164 288 172

C278 196 270 221 266 241

C260 268 260 267 261 314

C261 353 261 360 263 376

C264 386 265 395 265 396

L265 397

L261 397

C259 397 254 396 250 395

Z

M733 291

C732 289 724 253 710 189

C705 167 699 141 696 130

C694 120 692 110 692 110

L692 108

L695 108

C699 108 726 119 746 129

C762 137 779 147 780 149

C784 161 786 200 782 217

C777 242 767 259 747 280

C741 287 735 292 735 292

C735 292 734 291 733 291

Z

M484 279

C473 268 469 263 462 253

C438 216 425 168 425 113

C425 95 425 95 430 94

C467 86 481 84 509 82

C521 81 526 81 527 82

C531 85 536 116 537 137

C538 173 533 192 504 274

C500 286 498 290 496 290

C495 290 491 287 484 279

Z

M601 289

C601 288 598 280 595 271

C578 222 571 203 567 184

C565 174 565 169 564 149

C564 134 564 122 565 117

C566 105 571 85 572 83

C573 82 576 82 599 85

C616 87 635 90 654 95

C677 101 675 99 675 116

C675 142 673 162 668 183

C662 208 650 235 637 255

C629 267 607 290 604 290

L602 290

L601 289

Z

M352 277

C333 257 325 243 319 224

C315 210 315 204 315 180

C316 161 316 155 318 148

C319 143 320 138 321 137

C323 133 361 115 392 105

C398 103 404 101 405 101

L407 101

L407 104

C407 105 406 111 404 117

C403 123 396 154 389 186

C371 264 367 285 366 287

C364 289 362 288 352 277

Z

"/>

<path fill="#a90004" stroke="none" d="
M501 997

C486 996 456 992 455 991

L455 991

L459 991

L463 991

L457 990

L451 990

L451 971

C451 948 453 934 459 916

C467 892 479 872 495 856

L500 852

L502 853

C504 854 521 901 527 923

C529 931 529 935 530 953

C530 964 530 976 529 980

L529 987

L528 985

L527 983

L527 989

C527 992 527 996 526 997

C525 999 523 999 501 997

Z

M555 998

C554 997 553 993 552 987

C549 974 549 941 552 930

C555 911 575 854 578 852

L580 851

L586 857

L593 863

L592 864

L592 865

L596 868

C608 880 622 912 627 939

C629 949 629 956 629 971

L630 990

L624 990

L618 991

L622 991

L626 991

L625 992

C622 993 593 996 578 997

C557 999 555 999 555 998

Z

M592 864

C592 864 589 861 586 858

L581 853

L586 858

C589 861 592 864 592 864

L592 864

L592 864

Z

M530 997

C530 996 531 992 531 988

L533 982

L533 986

L533 990

L534 987

C534 985 535 972 535 958

L535 933

L534 937

L533 942

L533 933

C533 924 530 912 522 889

C507 847 507 846 502 846

C498 846 496 848 487 858

C470 875 458 897 456 912

C456 915 454 923 452 929

L449 941

L449 937

L448 933

L448 943

L448 953

L447 949

L446 945

L446 949

C445 952 445 962 445 971

L445 987

L440 987

L435 987

L438 986

L442 986

L435 985

C428 985 428 985 423 978

C416 965 405 943 401 931

C394 909 394 907 394 867

C395 848 395 831 396 829

L397 825

L397 829

L397 834

L398 828

C399 825 399 819 399 815

L399 808

L389 807

C377 807 366 809 353 816

C346 819 342 822 334 829

C321 842 316 850 312 867

C310 872 310 877 310 898

C310 911 310 923 311 926

L312 930

L312 925

L312 921

L314 928

C314 931 315 935 315 936

L315 938

L313 938

C309 938 274 914 265 906

L260 902

L259 902

L259 902

L250 895

C239 886 188 835 182 826

L177 820

L178 820

L178 820

L173 815

C169 809 151 785 146 775

L143 770

L144 770

C145 770 158 770 174 770

C195 770 204 770 205 769

C205 768 206 766 206 764

C206 761 182 672 177 657

C171 638 163 623 157 616

L152 611

L162 601

C174 589 179 581 184 565

C189 549 190 540 190 511

C190 482 189 473 183 456

C179 442 174 434 166 425

C154 413 145 410 120 409

L103 409

L103 404

C103 400 108 384 115 367

C119 356 134 326 140 315

C155 289 178 257 181 257

L182 257

L182 286

L182 315

L183 312

L184 309

L184 311

C185 312 185 316 186 320

C188 331 193 347 199 358

C204 367 206 370 215 379

C225 389 232 395 236 397

C237 398 240 399 242 399

C244 400 250 401 254 402

L262 404

L258 404

L254 405

L262 405

C268 405 271 405 272 404

C273 402 273 390 272 381

L271 375

L271 381

L271 387

L269 375

C268 366 268 351 268 314

C268 264 268 264 270 250

C275 224 282 202 293 174

C301 154 304 147 307 145

L310 143

L311 144

C312 145 312 147 311 153

L309 161

L309 156

L309 151

L308 154

C308 155 307 169 307 184

L307 211

L308 207

L309 203

L309 211

C309 222 312 232 320 249

C326 260 326 261 346 280

C357 291 366 300 367 300

C370 300 372 297 372 292

C372 290 373 282 375 274

L378 260

L379 263

L380 267

L380 260

C380 251 413 102 415 99

L416 98

L417 98

L418 99

L418 123

C418 136 418 150 419 152

L420 157

L420 152

L420 148

L422 161

C427 187 433 205 442 226

C453 251 464 267 480 283

L493 296

L492 296

L491 297

L496 297

C502 297 505 294 505 289

C505 288 507 281 509 275

C527 226 535 200 538 186

L540 179

L540 183

L541 187

L541 177

L541 168

L542 172

L543 177

L543 172

C544 165 544 122 543 115

L543 111

L542 115

L541 120

L541 110

L541 100

L540 104

L540 108

L538 99

C537 94 536 89 536 87

L536 83

L550 82

C558 82 565 82 565 83

C566 83 565 89 563 96

L560 109

L560 105

L559 101

L559 111

L559 121

L558 116

L557 112

L557 143

C557 160 558 176 558 178

L559 181

L559 176

L559 172

L561 183

C565 198 571 219 584 254

C589 270 595 286 595 289

C596 296 598 298 604 297

C608 297 609 296 620 285

C627 277 633 269 639 261

C643 254 648 247 650 244

C655 239 661 226 662 220

C663 218 665 210 667 204

C671 192 677 169 677 164

L677 162

L678 166

L679 171

L679 163

C679 159 679 152 680 147

L681 140

L681 146

L682 153

L682 129

L682 106

L683 106

C685 106 684 101 699 169

C707 207 711 225 711 229

L711 237

L712 233

L713 230

L718 255

C722 271 724 283 724 287

L724 294

L725 290

L726 287

L726 290

C727 292 727 295 727 297

C727 299 728 301 728 302

C731 305 734 303 747 289

C771 265 783 243 789 213

C791 204 791 200 791 185

C790 175 790 165 789 162

L789 156

L790 156

C792 156 795 161 802 178

C816 212 824 239 829 271

C831 282 831 365 829 386

L828 401

L827 395

L826 389

L826 403

L827 417

L830 417

C836 417 851 413 862 408

C871 403 874 402 883 392

C893 382 894 381 900 369

C907 355 909 347 912 333

L914 324

L914 328

L914 333

L915 330

C915 328 916 316 916 304

L916 282

L917 282

C918 282 924 289 929 297

C951 331 974 384 976 403

L977 409

L934 409

C911 409 891 409 891 410

C889 411 890 766 891 768

C892 769 897 769 913 769

C924 769 935 769 935 770

L937 770

L934 775

C927 788 912 809 900 825

C889 837 837 889 825 900

C802 918 763 943 758 943

L757 943

L757 940

C757 939 758 934 759 929

L761 921

L761 925

L761 929

L762 925

C763 922 763 910 763 897

C763 877 763 872 761 867

C757 850 752 842 739 829

C728 819 721 815 707 810

C700 808 697 808 687 808

L675 808

L674 818

L674 828

L675 823

L676 819

L676 830

L676 841

L677 836

L678 832

L678 839

C679 848 679 904 678 908

L677 911

L677 907

L677 904

L675 911

C674 915 673 921 673 923

C673 932 661 960 649 979

C644 987 644 987 639 987

L635 987

L635 970

C635 959 634 950 633 943

L632 932

L631 936

L631 940

L628 928

C626 922 624 914 624 911

C623 901 618 891 608 875

C602 867 587 849 583 846

C580 845 576 845 574 847

C571 850 553 900 548 920

C545 933 545 933 545 958

C545 971 546 984 546 986

L547 989

L547 985

L547 981

L549 988

C550 992 550 996 550 996

L549 998

L540 998

L531 998

L530 997

Z

M260 902

C260 902 258 900 256 897

L252 894

L255 898

C258 900 260 902 260 902

L260 902

L260 902

Z

M186 828

C186 828 184 826 182 823

L178 820

L181 824

C184 826 186 828 186 828

L186 828

L186 828

Z

M365 769

C366 768 366 764 366 759

L366 751

L367 757

L368 763

L370 744

C372 733 373 722 373 718

L374 712

L403 712

L432 712

L432 721

C433 726 434 738 435 746

C437 755 438 763 438 764

C438 765 439 767 440 768

C441 770 444 770 473 770

C510 770 508 770 508 761

C508 757 496 693 475 586

C456 492 441 415 441 414

C441 413 440 412 440 411

C439 409 436 409 404 409

C367 409 366 409 366 413

C366 414 351 493 332 587

C313 682 298 761 298 763

C298 766 299 768 299 769

C300 770 309 770 332 770

C355 770 364 770 365 769

Z

M669 767

C670 765 671 756 671 697

L672 629

L673 628

C674 628 681 634 683 638

C686 644 690 658 706 714

C714 743 722 768 722 769

C724 771 793 771 795 769

C795 768 796 766 796 764

C796 760 769 660 764 648

C758 632 753 622 748 616

L743 611

L753 601

C763 591 768 583 773 568

C779 551 780 543 780 511

C780 474 778 463 769 443

C764 432 751 419 742 415

C730 409 727 409 665 409

C608 409 608 409 607 412

C605 415 605 427 605 591

C605 689 605 768 605 769

C606 769 620 769 637 769

C667 769 667 769 669 767

Z

M418 99

L417 99

L416 100

L415 101

L416 100

L418 100

L418 99

Z

M653 984

C653 983 657 974 662 963

C672 944 677 930 682 914

C684 904 684 901 685 879

C685 862 685 850 684 844

C683 839 683 830 682 825

L682 815

L690 815

C699 815 708 817 718 822

C726 827 745 845 749 853

C755 866 756 872 756 896

C756 908 756 920 755 924

C753 934 750 947 749 949

C744 954 688 976 664 983

C660 983 657 984 656 985

L654 985

L653 984

Z

M412 981

C399 978 369 967 349 958

C330 949 324 946 322 943

C319 936 318 925 317 900

C317 877 317 875 319 867

C323 854 326 848 338 836

C350 824 356 821 368 817

C373 816 378 815 383 815

L391 815

L391 821

C391 825 390 832 390 839

C389 846 388 858 388 873

C388 893 388 899 390 907

C393 924 399 940 410 961

C415 971 419 980 419 981

C418 982 415 982 412 981

Z

M27 769

C34 769 44 769 50 769

L62 770

L39 770

L16 770

L27 769

Z

M1035 769

C1043 769 1057 769 1065 769

L1081 770

L1050 770

L1020 770

L1035 769

Z

M20 760

C19 760 19 419 19 418

C20 418 46 418 78 418

C137 419 137 419 144 421

C150 424 152 425 159 431

C176 448 183 475 182 518

C181 546 178 561 169 578

C164 587 151 601 143 605

C136 609 137 610 145 618

C152 624 153 625 158 636

C161 642 165 650 166 654

C170 665 195 755 195 758

L195 761

L166 761

C142 761 138 760 137 759

C136 758 129 733 121 704

C112 675 104 647 102 642

C96 626 90 620 78 620

C74 620 72 620 71 621

C70 622 70 643 70 692

L70 761

L45 761

C31 761 20 761 20 760

Z

M105 559

L102 558

L103 558

C107 558 117 553 120 550

C127 544 130 532 130 516

C129 499 125 490 116 485

C112 483 110 482 92 482

C78 482 72 482 71 483

C70 484 70 490 70 521

C70 548 70 558 71 559

C72 560 78 560 90 560

L109 560

L105 559

Z

M899 760

C898 760 898 419 898 418

C899 418 925 418 957 418

C1019 419 1019 419 1029 424

C1035 427 1045 439 1049 447

C1058 465 1060 478 1060 512

C1060 540 1059 550 1053 566

C1047 582 1036 598 1024 604

C1021 606 1018 608 1017 609

L1016 610

L1024 618

C1032 626 1034 627 1038 636

C1040 640 1043 648 1044 651

C1048 660 1074 754 1074 758

L1074 761

L1046 761

C1024 761 1017 761 1016 760

C1016 759 1010 738 1003 714

C979 631 977 627 967 622

C962 620 952 619 950 621

C949 622 949 643 949 692

L949 761

L924 761

C910 761 899 761 899 760

Z

M984 559

L981 558

L982 558

C986 558 996 553 999 550

C1003 547 1005 542 1008 534

C1010 526 1009 507 1006 499

C1003 492 996 485 990 483

C985 482 952 482 950 483

C949 484 949 494 949 521

C949 548 949 558 950 559

C951 560 957 560 969 560

L988 560

L984 559

Z

M958 675

L958 629

L960 629

C961 629 963 630 965 632

C969 635 973 643 977 658

C979 665 979 665 976 675

C974 680 973 686 973 688

C973 690 972 695 971 698

L969 705

L968 702

L967 700

L964 709

C962 714 960 719 959 720

L958 722

L958 675

Z

M18 409

C19 409 21 409 22 409

L25 410

L20 410

L16 410

L18 409

Z

M835 394

C836 387 836 375 837 368

C838 359 838 341 838 318

C837 285 837 279 835 269

C830 241 822 215 811 187

C808 178 805 170 805 169

L805 167

L807 167

C808 167 814 171 821 177

C840 191 900 252 899 255

C899 255 901 258 904 260

C908 264 908 264 908 293

C908 324 907 334 901 352

C896 368 892 374 877 388

C861 404 854 408 841 408

L835 408

L835 394

Z

M899 255

C899 254 898 253 896 252

L894 250

L896 252

C897 254 898 255 899 255

L899 255

L899 255

Z

M245 393

C235 389 229 385 218 374

C209 364 207 361 203 353

C197 342 194 330 191 315

C190 307 190 299 190 273

C191 242 191 242 219 214

C238 195 251 183 260 176

C278 162 288 155 291 155

L293 155

L293 157

C293 157 291 164 288 172

C278 195 270 221 266 239

C261 265 261 267 260 305

C260 328 260 346 261 355

C262 362 262 374 263 381

L263 395

L256 395

C252 395 248 394 245 393

Z

M733 291

C733 290 732 287 732 284

L732 278

L731 280

L731 283

L728 273

C727 267 720 237 713 206

C707 175 699 141 696 130

C694 120 692 110 692 110

L692 108

L695 108

C699 108 726 119 746 129

C762 137 779 147 780 149

C784 161 786 200 782 217

C777 242 767 259 747 280

C741 287 735 292 735 292

C735 292 734 291 733 291

Z

M484 279

C473 268 469 263 462 253

C442 222 430 184 426 141

C425 124 425 96 426 95

C428 94 452 89 461 88

L469 88

L468 87

L467 86

L481 85

C504 82 526 80 527 82

C529 83 533 99 535 112

C536 120 536 127 536 148

C535 172 535 176 533 186

C528 204 521 226 504 274

C500 286 498 290 496 290

C495 290 491 287 484 279

Z

M601 289

C601 288 598 280 595 271

C578 222 571 203 567 184

C565 174 565 169 564 149

C564 134 564 122 565 117

C566 105 571 85 572 83

C573 82 576 82 599 85

C616 87 635 90 654 95

C677 101 675 99 675 116

C675 142 673 162 668 183

C662 208 650 235 637 255

C629 267 607 290 604 290

L602 290

L601 289

Z

M349 273

C332 255 325 243 319 224

C315 210 315 204 315 180

C316 161 316 155 318 148

C319 143 320 138 321 137

C323 133 361 115 392 105

C398 103 404 101 405 101

L407 101

L407 103

C407 105 405 115 402 127

C399 139 397 150 396 153

L396 157

L395 154

L394 152

L394 157

C394 162 387 195 371 264

L368 281

L367 279

L366 277

L366 281

L365 286

L364 286

C363 286 357 280 349 273

Z

M309 760

C308 760 308 758 308 757

C308 755 323 678 341 586

L375 418

L404 418

L433 418

L433 420

C433 421 448 496 466 587

C488 699 498 752 498 756

L498 761

L473 761

L448 761

L447 751

L446 741

L446 747

L446 754

L442 731

C440 718 438 706 437 705

C436 703 436 703 403 703

C370 703 369 703 368 705

C367 706 365 718 363 731

L360 756

L359 750

L359 744

L358 752

L358 761

L333 761

C320 761 309 761 309 760

Z

M426 634

C427 633 427 630 427 624

L427 616

L426 621

L426 626

L416 565

C411 532 406 504 405 503

C404 503 403 502 402 502

L401 502

L400 504

C399 507 380 624 380 629

C380 630 380 633 381 633

L381 635

L403 635

C418 635 425 635 426 634

Z

M614 760

C613 760 613 682 613 589

L613 418

L668 418

C719 418 723 418 730 420

C741 423 743 424 751 432

C758 440 761 446 765 458

C771 475 771 480 771 511

C771 537 771 540 769 550

C767 562 761 576 756 584

C751 592 742 601 735 605

C727 609 727 611 734 616

C737 618 741 621 743 623

C746 627 751 638 756 652

C761 664 785 753 785 758

L785 761

L757 761

L729 761

L715 714

C699 657 697 649 693 639

C690 630 685 624 680 621

C676 620 666 620 664 621

C663 622 663 643 663 692

L663 761

L638 761

C624 761 614 761 614 760

Z

M703 556

C711 552 713 550 716 544

C720 536 721 531 721 516

C720 504 720 502 718 497

C715 491 708 484 703 483

C698 482 666 482 664 483

C662 485 662 556 664 558

C665 559 669 559 681 559

C695 558 697 558 703 556

Z

M84 520

L84 489

L97 489

C110 489 111 489 114 491

C116 493 119 496 120 498

C122 502 122 504 122 519

C122 537 121 540 116 545

C112 550 108 551 94 551

L84 551

L84 520

Z

M958 520

L959 490

L974 489

C990 489 990 489 993 492

C997 495 997 495 997 518

C997 541 997 541 994 543

C993 545 988 547 985 548

C979 551 976 551 968 551

L958 551

L958 520

Z

M389 618

C389 613 389 608 390 606

L391 602

L391 607

L391 612

L395 589

C397 575 399 562 399 557

C399 549 400 539 402 535

L402 534

L404 535

C405 536 405 539 405 546

C405 553 407 564 410 585

L415 614

L415 609

L415 604

L416 608

C417 610 417 615 417 619

L417 626

L403 626

L389 626

L389 618

Z

M671 550

C671 549 671 535 671 519

L672 490

L688 490

C704 490 704 490 708 494

C713 498 713 498 713 516

C713 537 713 540 709 544

C705 550 700 551 685 551

L672 551

L671 550

Z

"/>

<path fill="#3d5065" stroke="none" d="
M501 997

C486 996 456 992 455 991

L455 991

L459 991

L463 991

L457 990

L451 990

L451 971

C451 948 453 934 459 916

C467 892 479 872 495 856

L500 852

L502 853

C504 854 521 901 527 923

C529 931 529 935 530 953

C530 964 530 976 529 980

L529 987

L528 985

L527 983

L527 989

C527 992 527 996 526 997

C525 999 523 999 501 997

Z

M555 998

C554 997 553 993 552 987

C549 974 549 941 552 930

C555 911 575 854 578 852

L580 851

L586 857

L593 863

L592 864

L592 865

L596 868

C608 880 622 912 627 939

C629 949 629 956 629 971

L630 990

L624 990

L618 991

L622 991

L626 991

L625 992

C622 993 593 996 578 997

C557 999 555 999 555 998

Z

M592 864

C592 864 589 861 586 858

L581 853

L586 858

C589 861 592 864 592 864

L592 864

L592 864

Z

M653 984

C653 983 657 974 662 963

C672 944 677 930 682 914

C684 904 684 901 685 879

C685 862 685 850 684 844

C683 839 683 830 682 825

L682 815

L690 815

C699 815 708 817 718 822

C726 827 745 845 749 853

C755 866 756 872 756 896

C756 908 756 920 755 924

C753 934 750 947 749 949

C744 954 688 976 664 983

C660 983 657 984 656 985

L654 985

L653 984

Z

M412 981

C399 978 369 967 349 958

C330 949 324 946 322 943

C319 936 318 925 317 900

C317 877 317 875 319 867

C323 854 326 848 338 836

C350 824 356 821 368 817

C373 816 378 815 383 815

L391 815

L391 821

C391 825 390 832 390 839

C389 846 388 858 388 873

C388 893 388 899 390 907

C393 924 399 940 410 961

C415 971 419 980 419 981

C418 982 415 982 412 981

Z

M27 769

C34 769 44 769 50 769

L62 770

L39 770

L16 770

L27 769

Z

M1035 769

C1043 769 1057 769 1065 769

L1081 770

L1050 770

L1020 770

L1035 769

Z

M20 760

C19 760 19 419 19 418

C20 418 46 418 78 418

C137 419 137 419 144 421

C150 424 152 425 159 431

C176 448 183 475 182 518

C181 546 178 561 169 578

C164 587 151 601 143 605

C136 609 137 610 145 618

C152 624 153 625 158 636

C161 642 165 650 166 654

C170 665 195 755 195 758

L195 761

L166 761

C142 761 138 760 137 759

C136 758 129 733 121 704

C112 675 104 647 102 642

C96 626 90 620 78 620

C74 620 72 620 71 621

C70 622 70 643 70 692

L70 761

L45 761

C31 761 20 761 20 760

Z

M105 559

L102 558

L103 558

C107 558 117 553 120 550

C127 544 130 532 130 516

C129 499 125 490 116 485

C112 483 110 482 92 482

C78 482 72 482 71 483

C70 484 70 490 70 521

C70 548 70 558 71 559

C72 560 78 560 90 560

L109 560

L105 559

Z

M309 760

C308 760 308 758 308 757

C308 755 323 678 341 586

L375 418

L404 418

L433 418

L433 420

C433 421 448 496 466 587

C488 699 498 752 498 756

L498 761

L473 761

L448 761

L447 751

L446 741

L446 747

L446 754

L442 731

C440 718 438 706 437 705

C436 703 436 703 403 703

C370 703 369 703 368 705

C367 706 365 718 363 731

L360 756

L359 750

L359 744

L358 752

L358 761

L333 761

C320 761 309 761 309 760

Z

M426 634

C427 633 427 630 427 624

L427 616

L426 621

L426 626

L416 565

C411 532 406 504 405 503

C404 503 403 502 402 502

L401 502

L400 504

C399 507 380 624 380 629

C380 630 380 633 381 633

L381 635

L403 635

C418 635 425 635 426 634

Z

M614 760

C613 760 613 682 613 589

L613 418

L668 418

C719 418 723 418 730 420

C741 423 743 424 751 432

C758 440 761 446 765 458

C771 475 771 480 771 511

C771 537 771 540 769 550

C767 562 761 576 756 584

C751 592 742 601 735 605

C727 609 727 611 734 616

C737 618 741 621 743 623

C746 627 751 638 756 652

C761 664 785 753 785 758

L785 761

L757 761

L729 761

L715 714

C699 657 697 649 693 639

C690 630 685 624 680 621

C676 620 666 620 664 621

C663 622 663 643 663 692

L663 761

L638 761

C624 761 614 761 614 760

Z

M703 556

C711 552 713 550 716 544

C720 536 721 531 721 516

C720 504 720 502 718 497

C715 491 708 484 703 483

C698 482 666 482 664 483

C662 485 662 556 664 558

C665 559 669 559 681 559

C695 558 697 558 703 556

Z

M899 760

C898 760 898 419 898 418

C899 418 925 418 957 418

C1019 419 1019 419 1029 424

C1035 427 1045 439 1049 447

C1058 465 1060 478 1060 512

C1060 540 1059 550 1053 566

C1047 582 1036 598 1024 604

C1021 606 1018 608 1017 609

L1016 610

L1024 618

C1032 626 1034 627 1038 636

C1040 640 1043 648 1044 651

C1048 660 1074 754 1074 758

L1074 761

L1046 761

C1024 761 1017 761 1016 760

C1016 759 1010 738 1003 714

C979 631 977 627 967 622

C962 620 952 619 950 621

C949 622 949 643 949 692

L949 761

L924 761

C910 761 899 761 899 760

Z

M984 559

L981 558

L982 558

C986 558 996 553 999 550

C1003 547 1005 542 1008 534

C1010 526 1009 507 1006 499

C1003 492 996 485 990 483

C985 482 952 482 950 483

C949 484 949 494 949 521

C949 548 949 558 950 559

C951 560 957 560 969 560

L988 560

L984 559

Z

M18 409

C19 409 21 409 22 409

L25 410

L20 410

L16 410

L18 409

Z

M835 394

C836 387 836 375 837 368

C838 359 838 341 838 318

C837 285 837 279 835 269

C830 241 822 215 811 187

C808 178 805 170 805 169

L805 167

L807 167

C808 167 814 171 821 177

C840 191 900 252 899 255

C899 255 901 258 904 260

C908 264 908 264 908 293

C908 324 907 334 901 352

C896 368 892 374 877 388

C861 404 854 408 841 408

L835 408

L835 394

Z

M899 255

C899 254 898 253 896 252

L894 250

L896 252

C897 254 898 255 899 255

L899 255

L899 255

Z

M245 393

C235 389 229 385 218 374

C209 364 207 361 203 353

C197 342 194 330 191 315

C190 307 190 299 190 273

C191 242 191 242 219 214

C238 195 251 183 260 176

C278 162 288 155 291 155

L293 155

L293 157

C293 157 291 164 288 172

C278 195 270 221 266 239

C261 265 261 267 260 305

C260 328 260 346 261 355

C262 362 262 374 263 381

L263 395

L256 395

C252 395 248 394 245 393

Z

M733 291

C733 290 732 287 732 284

L732 278

L731 280

L731 283

L728 273

C727 267 720 237 713 206

C707 175 699 141 696 130

C694 120 692 110 692 110

L692 108

L695 108

C699 108 726 119 746 129

C762 137 779 147 780 149

C784 161 786 200 782 217

C777 242 767 259 747 280

C741 287 735 292 735 292

C735 292 734 291 733 291

Z

M484 279

C473 268 469 263 462 253

C442 222 430 184 426 141

C425 124 425 96 426 95

C428 94 452 89 461 88

L469 88

L468 87

L467 86

L481 85

C504 82 526 80 527 82

C529 83 533 99 535 112

C536 120 536 127 536 148

C535 172 535 176 533 186

C528 204 521 226 504 274

C500 286 498 290 496 290

C495 290 491 287 484 279

Z

M601 289

C601 288 598 280 595 271

C578 222 571 203 567 184

C565 174 565 169 564 149

C564 134 564 122 565 117

C566 105 571 85 572 83

C573 82 576 82 599 85

C616 87 635 90 654 95

C677 101 675 99 675 116

C675 142 673 162 668 183

C662 208 650 235 637 255

C629 267 607 290 604 290

L602 290

L601 289

Z

M349 273

C332 255 325 243 319 224

C315 210 315 204 315 180

C316 161 316 155 318 148

C319 143 320 138 321 137

C323 133 361 115 392 105

C398 103 404 101 405 101

L407 101

L407 103

C407 105 405 115 402 127

C399 139 397 150 396 153

L396 157

L395 154

L394 152

L394 157

C394 162 387 195 371 264

L368 281

L367 279

L366 277

L366 281

L365 286

L364 286

C363 286 357 280 349 273

Z

"/>

<path fill="#289486" stroke="none" d="
M523 997

L523 996

L504 996

C492 996 481 995 473 994

L461 993

L464 992

L468 992

L460 990

L452 989

L451 972

C451 962 451 952 452 948

L452 942

L453 945

L454 948

L454 945

C454 944 455 940 456 937

C457 934 458 928 460 924

C461 919 462 913 463 911

C465 902 474 885 479 880

C481 878 482 876 482 875

C482 873 499 856 501 856

L503 856

L503 859

C503 862 504 864 513 890

C519 908 527 932 527 935

L527 938

L528 934

L529 931

L529 959

L529 987

L528 985

L527 983

L527 984

C526 985 526 989 525 992

C525 995 524 997 524 998

L523 998

L523 997

Z

M556 997

C555 997 555 995 555 993

C555 991 554 987 554 984

L553 980

L552 983

L551 986

L551 958

L551 930

L552 934

L553 938

L553 934

C554 928 560 911 569 885

C573 872 577 860 577 858

L577 855

L579 855

C581 855 598 872 598 874

C598 875 599 877 601 879

C606 884 615 901 617 909

C619 916 620 922 622 930

C623 933 625 940 626 944

L627 951

L628 949

L629 948

L629 968

L629 988

L623 990

C619 990 615 991 613 992

L609 992

L611 993

L614 994

L602 995

C596 996 583 996 573 996

L556 996

L557 997

L557 998

L557 998

C557 998 556 998 556 997

Z

M658 980

C658 980 662 972 666 963

C675 945 682 927 684 914

C685 907 685 859 683 828

L683 816

L688 816

C691 816 696 817 700 819

C703 820 707 821 709 821

C715 821 722 826 734 839

C748 853 749 855 752 870

L753 876

L754 872

L755 869

L755 898

L755 928

L754 925

L753 922

L753 925

C753 926 751 932 750 937

C747 947 747 947 736 952

C712 964 668 980 660 980

L658 980

L658 980

Z

M394 972

C385 969 376 966 374 965

C371 964 369 963 367 963

C366 963 363 962 360 961

C351 958 328 946 326 944

C325 943 324 941 324 940

C324 938 323 935 323 934

C322 932 321 928 320 925

L320 921

L319 924

L318 928

L318 898

L318 869

L319 872

L320 876

L320 874

C321 874 321 871 322 868

C323 856 325 853 338 839

C352 825 360 820 367 820

C369 820 373 819 376 818

C379 817 383 816 385 816

L389 816

L388 864

C388 913 388 913 390 922

C394 935 399 947 407 964

C411 971 414 977 414 977

L414 978

L412 978

C411 978 403 975 394 972

Z

M662 969

C662 968 664 964 666 960

L670 953

L670 954

C670 954 668 958 666 962

L662 970

L662 969

Z

M27 769

C33 769 43 769 49 769

L61 770

L38 770

L16 770

L27 769

Z

M1035 769

C1043 769 1057 769 1065 769

L1081 770

L1050 770

L1020 770

L1035 769

Z

M21 759

C20 757 20 722 20 589

L20 420

L22 420

C22 419 45 419 72 419

C126 419 134 420 145 425

C162 432 174 453 179 485

C180 494 180 501 180 517

C179 545 175 560 165 579

C159 590 153 596 145 601

C136 605 135 607 135 610

C135 612 136 614 141 617

C149 624 151 627 156 637

C164 653 167 664 180 710

C187 734 193 755 193 756

C194 757 194 759 193 759

C193 760 182 760 167 760

L140 760

L139 756

C138 753 131 730 123 703

C108 651 104 637 101 632

C99 627 90 620 86 618

C82 617 72 617 70 618

C69 619 69 636 69 690

L69 760

L46 760

C27 760 22 760 21 759

Z

M110 558

C114 557 119 555 120 554

C124 551 128 544 130 536

C133 526 132 505 129 497

C126 490 119 483 113 481

C109 480 72 479 70 480

C68 481 69 558 70 560

C71 561 76 561 87 561

C102 561 104 561 110 558

Z

M309 754

C309 751 310 746 310 743

L312 737

L312 742

L312 748

L313 746

C314 739 376 425 376 423

L377 420

L404 420

L431 420

L431 423

C431 426 492 737 494 747

L495 749

L495 743

L495 738

L497 744

C497 747 498 752 498 755

L498 760

L473 760

L449 760

L448 756

C448 754 447 743 445 731

L442 709

L441 715

L440 722

L440 713

C440 708 440 704 439 703

C438 702 429 702 403 702

C362 702 365 701 365 715

L365 724

L364 717

L364 711

L361 728

C359 738 358 749 357 753

L357 760

L333 760

L309 760

L309 754

Z

M426 634

C426 633 427 630 427 626

C427 621 417 552 408 504

C408 499 402 497 399 501

C398 502 394 524 387 567

C382 602 377 631 377 632

C377 636 379 636 402 636

C422 636 424 636 426 634

Z

M614 591

C614 498 614 421 615 421

L615 419

L665 419

C718 419 723 419 735 424

C750 429 760 444 766 470

C769 481 769 483 770 507

C770 528 770 534 769 541

C763 571 751 593 736 601

C729 605 726 608 726 610

C726 611 730 615 734 619

C741 626 743 628 747 635

C754 652 757 660 770 708

C777 734 783 757 784 758

L784 760

L757 760

L731 760

L715 703

C695 634 694 632 687 625

C684 621 681 619 678 618

C673 617 665 617 663 618

C662 619 662 639 662 690

L662 760

L638 760

L614 760

L614 591

Z

M703 559

C712 555 718 549 721 539

C723 533 723 530 723 516

C722 502 722 500 720 495

C717 489 710 482 705 481

C700 480 665 480 663 481

C662 482 662 492 662 521

C662 542 662 560 663 560

C663 561 671 561 679 561

C694 561 696 561 703 559

Z

M900 759

C899 758 899 719 899 589

L899 420

L901 419

C903 419 927 419 957 419

C1013 420 1013 420 1026 425

C1039 431 1050 449 1056 476

C1058 484 1058 489 1058 510

C1059 537 1058 542 1053 559

C1047 579 1036 595 1024 601

C1016 605 1014 607 1014 610

C1014 612 1015 614 1019 616

C1021 618 1025 622 1027 624

C1031 628 1039 643 1043 656

C1046 663 1072 755 1072 758

L1073 760

L1046 760

L1019 760

L1018 758

C1017 757 1011 734 1003 707

C989 658 983 641 981 634

C978 628 971 621 967 619

C962 617 951 616 949 618

C948 619 948 636 948 690

L948 760

L925 760

C908 760 901 760 900 759

Z

M989 558

C998 555 1001 554 1005 548

C1009 541 1011 531 1011 516

C1010 499 1008 494 1002 487

C998 484 995 482 993 481

C990 480 980 480 970 480

C952 480 951 480 950 482

C948 484 948 490 948 522

C948 549 948 559 949 560

C950 561 955 561 966 561

C981 561 983 561 989 558

Z

M836 395

C836 389 836 378 837 372

L838 362

L838 379

L839 397

L838 336

C838 269 838 265 831 238

C827 220 817 188 811 177

L809 173

L809 172

L810 172

L814 175

C817 176 821 180 823 182

C826 184 829 186 829 186

L830 186

L827 183

L825 180

L862 217

C883 238 900 255 900 255

L900 255

L897 253

L894 250

L894 250

C894 251 903 263 906 267

C907 267 907 279 907 299

L907 330

L906 326

L905 322

L905 330

C905 334 905 339 904 341

L904 345

L903 342

L902 340

L901 344

C900 346 899 352 897 355

C895 359 894 363 894 364

C894 365 893 367 891 369

C889 371 888 373 888 374

C888 376 868 396 867 396

C866 396 864 397 862 399

C860 401 858 402 856 403

C855 403 851 404 848 405

C846 406 842 407 840 407

L836 407

L836 395

Z

M252 393

C241 391 236 388 222 374

C215 367 208 360 207 359

C202 348 200 343 199 337

C198 333 197 329 197 326

C196 324 195 320 194 318

L193 314

L193 318

L193 323

L192 319

C191 316 191 298 191 278

L191 242

L193 243

L194 243

L194 242

C194 241 208 227 225 210

L255 180

L253 183

L250 186

L250 186

C251 186 254 184 257 181

C261 179 267 174 271 172

C274 169 280 164 283 162

C286 159 289 157 290 157

L291 157

L291 159

L291 162

L290 160

L290 158

L289 158

L288 159

L288 160

C288 161 286 167 283 174

C271 204 265 227 261 255

C260 263 260 333 262 377

L262 394

L260 394

C259 394 255 393 252 393

Z

M733 291

C733 290 732 287 732 284

L732 278

L731 280

L731 283

L728 273

C719 231 701 148 700 142

C700 138 698 129 697 123

C696 117 695 112 695 111

L696 111

L707 115

C712 117 718 119 718 119

C722 119 755 135 759 138

C760 140 764 142 767 143

C769 145 773 147 775 149

L778 151

L779 151

L779 150

L776 147

L773 144

L776 146

C779 147 780 149 781 152

C782 157 783 215 781 221

L781 224

L780 223

L779 221

L776 230

C773 238 765 255 760 262

L759 265

L762 261

L766 257

L765 259

C765 260 758 267 750 275

L735 289

L734 287

L733 286

L733 287

L733 289

L735 290

C736 290 739 287 746 281

L756 272

L746 282

C740 287 735 292 735 292

C735 292 734 291 733 291

Z

M494 288

L495 288

L485 278

C479 271 472 263 468 257

C464 251 461 246 460 246

L459 245

L459 244

C460 244 458 239 455 233

L450 224

L449 224

L448 224

L449 223

C449 222 448 218 446 214

C440 199 430 166 430 160

L430 157

L429 160

L428 163

L428 158

C427 155 427 140 427 125

L427 97

L429 96

C430 96 439 94 448 92

C457 90 466 89 467 88

L469 88

L468 87

L467 86

L476 85

C482 85 495 84 505 84

L525 84

L525 83

L525 82

L526 83

C526 83 527 86 527 88

C528 90 529 97 530 102

L532 111

L533 108

L534 105

L534 109

C535 112 535 128 535 145

L535 177

L534 174

L534 171

L531 182

C526 203 521 217 503 266

C501 273 498 281 498 283

L498 288

L496 289

L494 289

L494 288

Z

M603 285

C602 284 602 282 601 280

C600 275 593 256 592 255

C591 255 591 252 590 250

C590 247 587 239 584 232

C579 218 572 196 571 189

L570 185

L569 187

L568 190

L567 181

C565 169 564 121 566 108

L567 101

L568 104

L569 107

L569 99

L569 92

L570 95

L571 98

L572 91

L574 85

L589 85

C603 85 623 88 637 91

L641 92

L638 92

L635 92

L643 94

C647 95 655 97 660 99

C665 101 670 102 671 102

L673 103

L673 128

C673 146 673 157 671 164

L670 175

L669 173

L668 172

L667 176

C667 178 666 180 666 181

C666 181 664 187 662 194

C660 200 658 207 658 208

L658 210

L657 210

L657 209

L655 213

C654 216 653 219 653 220

C653 223 645 238 642 241

L640 244

L640 244

L641 244

L636 251

C633 255 631 259 631 259

L631 260

L634 258

L636 256

L636 256

C636 258 606 288 605 288

L604 288

L603 285

Z

M348 271

C341 263 334 255 333 254

L332 252

L335 255

L339 259

L332 246

C329 239 324 230 322 225

L319 217

L319 219

L319 222

L318 219

C317 217 316 206 316 188

C316 162 316 157 318 150

L319 142

L320 145

L321 148

L321 143

C322 140 323 137 324 137

C326 135 353 122 359 120

C361 119 367 117 372 115

C391 108 400 105 402 105

L404 105

L404 109

C403 112 402 116 402 120

C397 140 396 145 396 151

L396 157

L395 154

L394 152

L394 159

L394 166

L393 163

L392 160

L392 167

L392 175

L391 172

L390 170

L390 173

C389 175 389 178 389 180

C389 183 387 195 384 209

L379 233

L378 231

L377 229

L372 255

C368 269 365 282 365 283

L364 285

L363 285

C363 285 356 279 348 271

Z

"/>

<path fill="#00ffff" stroke="none" d="
M523 997

L523 996

L504 996

C492 996 481 995 473 994

L461 993

L464 992

L468 991

L462 991

C459 990 455 989 454 989

L452 988

L452 965

L452 942

L453 945

L454 948

L454 945

C454 944 455 940 456 937

C457 934 458 928 460 924

C461 919 462 913 463 911

C465 902 474 885 479 880

C481 878 482 876 482 875

C482 873 499 856 501 856

L503 856

L503 859

C503 862 504 864 513 890

C519 908 527 932 527 935

L527 938

L528 934

L529 931

L529 959

L529 987

L528 985

L527 983

L527 984

C526 985 526 989 525 992

C525 995 524 997 524 998

L523 998

L523 997

Z

M556 997

C555 997 555 995 555 993

C555 991 554 987 554 984

L553 980

L552 983

L551 986

L551 958

L551 930

L552 934

L553 938

L553 934

C554 928 560 911 569 885

C573 872 577 860 577 858

L577 855

L579 855

C581 855 598 872 598 874

C598 875 599 877 601 879

C606 884 615 901 617 909

C619 916 620 922 622 930

C623 933 625 940 626 944

L627 951

L628 949

L629 948

L629 968

L629 988

L623 990

C619 990 615 991 613 992

L609 992

L611 993

L614 994

L602 995

C596 996 583 996 573 996

L556 996

L557 997

L557 998

L557 998

C557 998 556 998 556 997

Z

M658 980

C658 980 662 972 666 963

C675 945 682 927 684 914

C685 907 685 859 683 828

L683 816

L688 816

C691 816 696 817 700 819

C703 820 707 821 709 821

C715 821 722 826 734 839

C748 853 749 855 752 870

L753 876

L754 872

L755 869

L755 898

L755 928

L754 925

L753 922

L753 925

C753 926 751 932 750 937

C747 947 747 947 736 952

C712 964 668 980 660 980

L658 980

L658 980

Z

M394 972

C385 969 376 966 374 965

C371 964 369 963 367 963

C366 963 363 962 360 961

C351 958 328 946 326 944

C325 943 324 941 324 940

C324 938 323 935 323 934

C322 932 321 928 320 925

L320 921

L319 924

L318 928

L318 898

L318 869

L319 872

L320 876

L320 874

C321 874 321 871 322 868

C323 856 325 853 338 839

C352 825 360 820 367 820

C369 820 373 819 376 818

C379 817 383 816 385 816

L389 816

L388 864

C388 913 388 913 390 922

C394 935 399 947 407 964

C411 971 414 977 414 977

L414 978

L412 978

C411 978 403 975 394 972

Z

M27 769

C33 769 43 769 49 769

L61 770

L38 770

L16 770

L27 769

Z

M1035 769

C1043 769 1057 769 1065 769

L1081 770

L1050 770

L1020 770

L1035 769

Z

M836 395

C836 389 836 378 837 372

L838 362

L838 379

L839 397

L838 336

C838 269 838 265 831 238

C827 220 817 188 811 177

L809 173

L809 172

L810 172

L814 175

C817 176 821 180 823 182

C826 184 829 186 829 186

L830 186

L827 183

L825 180

L862 217

C883 238 900 255 900 255

L900 255

L897 253

L894 250

L894 250

C894 251 903 263 906 267

C907 267 907 279 907 299

L907 330

L906 326

L905 322

L905 330

C905 334 905 339 904 341

L904 345

L903 342

L902 340

L901 344

C900 346 899 352 897 355

C895 359 894 363 894 364

C894 365 893 367 891 369

C889 371 888 373 888 374

C888 376 868 396 867 396

C866 396 864 397 862 399

C860 401 858 402 856 403

C855 403 851 404 848 405

C846 406 842 407 840 407

L836 407

L836 395

Z

M252 393

C241 391 236 388 222 374

C215 367 208 360 207 359

C202 348 200 343 199 337

C198 333 197 329 197 326

C196 324 195 320 194 318

L193 314

L193 318

L193 323

L192 319

C191 316 191 298 191 278

L191 242

L193 243

L194 243

L194 242

C194 241 208 227 225 210

L255 180

L253 183

L250 186

L250 186

C251 186 254 184 257 181

C261 179 267 174 271 172

C274 169 280 164 283 162

C286 159 289 157 290 157

L291 157

L291 159

L291 162

L290 160

L290 158

L289 158

L288 159

L288 160

C288 161 286 167 283 174

C271 204 265 227 261 255

C260 263 260 333 262 377

L262 394

L260 394

C259 394 255 393 252 393

Z

M733 291

C733 290 732 287 732 284

L732 278

L731 280

L731 283

L728 273

C719 231 701 148 700 142

C700 138 698 129 697 123

C696 117 695 112 695 111

L696 111

L707 115

C712 117 718 119 718 119

C722 119 755 135 759 138

C760 140 764 142 767 143

C769 145 773 147 775 149

L778 151

L779 151

L779 150

L776 147

L773 144

L776 146

C779 147 780 149 781 152

C782 157 783 215 781 221

L781 224

L780 223

L779 221

L776 230

C773 238 765 255 760 262

L759 265

L762 261

L766 257

L765 259

C765 260 758 267 750 275

L735 289

L734 287

L733 286

L733 287

L733 289

L735 290

C736 290 739 287 746 281

L756 272

L746 282

C740 287 735 292 735 292

C735 292 734 291 733 291

Z

M494 288

L495 288

L485 278

C479 271 472 263 468 257

C464 251 461 246 460 246

L459 245

L459 244

C460 244 458 239 455 233

L450 224

L449 224

L448 224

L449 223

C449 222 448 218 446 214

C440 199 430 166 430 160

L430 157

L429 160

L428 163

L428 158

C427 155 427 140 427 125

L427 97

L429 96

C430 96 439 94 448 92

C457 90 466 89 467 88

L469 88

L468 87

L467 86

L476 85

C482 85 495 84 505 84

L525 84

L525 83

L525 82

L526 83

C526 83 527 86 527 88

C528 90 529 97 530 102

L532 111

L533 108

L534 105

L534 109

C535 112 535 128 535 145

L535 177

L534 174

L534 171

L531 182

C526 203 521 217 503 266

C501 273 498 281 498 283

L498 288

L496 289

L494 289

L494 288

Z

M603 285

C602 284 602 282 601 280

C600 276 593 256 592 255

C592 255 591 253 591 251

C590 250 587 240 583 230

C580 219 576 206 574 200

C572 194 570 188 570 187

L569 185

L569 187

L569 190

L567 185

C566 179 565 112 567 105

L567 101

L568 104

L569 107

L569 99

L569 92

L570 95

L571 98

L572 91

L574 85

L589 85

C603 85 623 88 637 91

L641 92

L638 92

L635 92

L643 94

C647 95 655 97 660 99

C665 101 670 102 671 102

L673 103

L673 128

C673 146 673 157 671 164

L670 175

L669 173

L668 172

L667 176

C667 178 666 180 666 181

C666 181 664 187 662 194

C660 200 658 207 658 208

L658 210

L657 210

L657 209

L655 213

C654 216 653 219 653 220

C653 223 645 238 642 241

L640 244

L640 244

L641 244

L636 251

C633 255 631 259 631 259

L631 260

L634 258

L636 256

L636 256

C636 258 606 288 605 288

L604 288

L603 285

Z

M348 271

C341 263 334 255 333 254

L332 252

L335 255

L339 259

L332 246

C329 239 324 230 322 225

L319 217

L319 219

L319 222

L318 219

C317 217 316 206 316 188

C316 162 316 157 318 150

L319 142

L320 145

L321 148

L321 143

C322 140 323 137 324 137

C326 135 353 122 359 120

C361 119 367 117 372 115

C391 108 400 105 402 105

L404 105

L404 109

C403 112 402 116 402 120

C397 140 396 145 396 151

L396 157

L395 154

L394 152

L394 159

L394 166

L393 163

L392 160

L392 167

L392 175

L391 172

L390 170

L390 173

C389 175 389 178 389 180

C389 183 387 195 384 209

L379 233

L378 231

L377 229

L372 255

C368 269 365 282 365 283

L364 285

L363 285

C363 285 356 279 348 271

Z

"/>

<path fill="#bfbfc0" stroke="none" d="
M523 997

L523 996

L504 996

C492 996 481 995 473 994

L461 993

L464 992

L468 991

L462 991

C459 990 455 989 454 989

L452 988

L452 965

L452 942

L453 945

L454 948

L454 945

C454 944 455 940 456 937

C457 934 458 928 460 924

C461 919 462 913 463 911

C465 902 474 885 479 880

C481 878 482 876 482 875

C482 873 499 856 501 856

L503 856

L503 859

C503 862 504 864 513 890

C519 908 527 932 527 935

L527 938

L528 934

L529 931

L529 959

L529 987

L528 985

L527 983

L527 984

C526 985 526 989 525 992

C525 995 524 997 524 998

L523 998

L523 997

Z

M556 997

C555 997 555 995 555 993

C555 991 554 987 554 984

L553 980

L552 983

L551 986

L551 958

L551 930

L552 934

L553 938

L553 934

C554 928 560 911 569 885

C573 872 577 860 577 858

L577 855

L579 855

C581 855 598 872 598 874

C598 875 599 877 601 879

C606 884 615 901 617 909

C619 916 620 922 622 930

C623 933 625 940 626 944

L627 951

L628 949

L629 948

L629 968

L629 988

L623 990

C619 990 615 991 613 992

L609 992

L611 993

L614 994

L602 995

C596 996 583 996 573 996

L556 996

L557 997

L557 998

L557 998

C557 998 556 998 556 997

Z

M658 980

C658 980 662 972 666 963

C675 945 682 927 684 914

C685 907 685 859 683 828

L683 816

L688 816

C691 816 696 817 700 819

C703 820 707 821 709 821

C715 821 722 826 734 839

C748 853 749 855 752 870

L753 876

L754 872

L755 869

L755 898

L755 928

L754 925

L753 922

L753 925

C753 926 751 932 750 937

C747 947 747 947 736 952

C712 964 668 980 660 980

L658 980

L658 980

Z

M394 972

C385 969 376 966 374 965

C371 964 369 963 367 963

C366 963 363 962 360 961

C351 958 328 946 326 944

C325 943 324 941 324 940

C324 938 323 935 323 934

C322 932 321 928 320 925

L320 921

L319 924

L318 928

L318 898

L318 869

L319 872

L320 876

L320 874

C321 874 321 871 322 868

C323 856 325 853 338 839

C352 825 360 820 367 820

C369 820 373 819 376 818

C379 817 383 816 385 816

L389 816

L388 864

C388 913 388 913 390 922

C394 935 399 947 407 964

C411 971 414 977 414 977

L414 978

L412 978

C411 978 403 975 394 972

Z

M27 769

C33 769 43 769 49 769

L61 770

L38 770

L16 770

L27 769

Z

M1035 769

C1043 769 1057 769 1065 769

L1081 770

L1050 770

L1020 770

L1035 769

Z

M836 395

C836 389 836 378 837 372

L838 362

L838 379

L839 397

L838 336

C838 269 838 265 831 238

C827 220 817 188 811 177

L809 173

L809 172

L810 172

L814 175

C817 176 821 180 823 182

C826 184 829 186 829 186

L830 186

L827 183

L825 180

L862 217

C883 238 900 255 900 255

L900 255

L897 253

L894 250

L894 250

C894 251 903 263 906 267

C907 267 907 279 907 299

L907 330

L906 326

L905 322

L905 330

C905 334 905 339 904 341

L904 345

L903 342

L902 340

L901 344

C900 346 899 352 897 355

C895 359 894 363 894 364

C894 365 893 367 891 369

C889 371 888 373 888 374

C888 376 868 396 867 396

C866 396 864 397 862 399

C860 401 858 402 856 403

C855 403 851 404 848 405

C846 406 842 407 840 407

L836 407

L836 395

Z

M252 393

C241 391 236 388 222 374

C215 367 208 360 207 359

C202 348 200 343 199 337

C198 333 197 329 197 326

C196 324 195 320 194 318

L193 314

L193 318

L193 323

L192 319

C191 316 191 298 191 278

L191 242

L193 243

L194 243

L194 242

C194 241 208 227 225 210

L255 180

L253 183

L250 186

L250 186

C251 186 254 184 257 181

C261 179 267 174 271 172

C274 169 280 164 283 162

C286 159 289 157 290 157

L291 157

L291 159

L291 162

L290 160

L290 158

L289 158

L288 159

L288 160

C288 161 286 167 283 174

C271 204 265 227 261 255

C260 263 260 333 262 377

L262 394

L260 394

C259 394 255 393 252 393

Z

M733 291

C733 290 732 287 732 284

L732 278

L731 280

L731 283

L728 273

C719 231 701 148 700 142

C700 138 698 129 697 123

C696 117 695 112 695 111

L696 111

L707 115

C712 117 718 119 718 119

C722 119 755 135 759 138

C760 140 764 142 767 143

C769 145 773 147 775 149

L778 151

L779 151

L779 150

L776 147

L773 144

L776 146

C779 147 780 149 781 152

C782 157 783 215 781 221

L781 224

L780 223

L779 221

L776 230

C773 238 765 255 760 262

L759 265

L762 261

L766 257

L765 259

C765 260 758 267 750 275

L735 289

L734 287

L733 286

L733 287

L733 289

L735 290

C736 290 739 287 746 281

L756 272

L746 282

C740 287 735 292 735 292

C735 292 734 291 733 291

Z

M494 288

L495 288

L485 278

C479 271 472 263 468 257

C464 251 461 246 460 246

L459 245

L459 244

C460 244 458 239 455 233

L450 224

L449 224

L448 224

L449 223

C449 222 448 218 446 214

C440 199 430 166 430 160

L430 157

L429 160

L428 163

L428 158

C427 155 427 140 427 125

L427 97

L429 96

C430 96 439 94 448 92

C457 90 466 89 467 88

L469 88

L468 87

L467 86

L476 85

C482 85 495 84 505 84

L525 84

L525 83

L525 82

L526 83

C526 83 527 86 527 88

C528 90 529 97 530 102

L532 111

L533 108

L534 105

L534 109

C535 112 535 128 535 145

L535 177

L534 174

L534 171

L531 182

C526 203 521 217 503 266

C501 273 498 281 498 283

L498 288

L496 289

L494 289

L494 288

Z

M603 285

C602 284 602 282 601 280

C600 276 593 256 592 255

C592 255 591 253 591 251

C590 250 587 240 583 230

C580 219 576 206 574 200

C572 194 570 188 570 187

L569 185

L569 187

L569 190

L567 185

C566 179 565 112 567 105

L567 101

L568 104

L569 107

L569 99

L569 92

L570 95

L571 98

L572 91

L574 85

L589 85

C603 85 623 88 637 91

L641 92

L638 92

L635 92

L643 94

C647 95 655 97 660 99

C665 101 670 102 671 102

L673 103

L673 128

C673 146 673 157 671 164

L670 175

L669 173

L668 172

L667 176

C667 178 666 180 666 181

C666 181 664 187 662 194

C660 200 658 207 658 208

L658 210

L657 210

L657 209

L655 213

C654 216 653 219 653 220

C653 223 645 238 642 241

L640 244

L640 244

L641 244

L636 251

C633 255 631 259 631 259

L631 260

L634 258

L636 256

L636 256

C636 258 606 288 605 288

L604 288

L603 285

Z

M348 271

C341 263 334 255 333 254

L332 252

L335 255

L339 259

L332 246

C329 239 324 230 322 225

L319 217

L319 219

L319 222

L318 219

C317 217 316 206 316 188

C316 162 316 157 318 150

L319 142

L320 145

L321 148

L321 143

C322 140 323 137 324 137

C326 135 353 122 359 120

C361 119 367 117 372 115

C391 108 400 105 402 105

L404 105

L404 109

C403 112 402 116 402 120

C397 140 396 145 396 151

L396 157

L395 154

L394 152

L394 159

L394 166

L393 163

L392 160

L392 167

L392 175

L391 172

L390 170

L390 173

C389 175 389 178 389 180

C389 183 387 195 384 209

L379 233

L378 231

L377 229

L372 255

C368 269 365 282 365 283

L364 285

L363 285

C363 285 356 279 348 271

Z

"/>

<path fill="#ffffff" stroke="none" d="
M472 994

L461 993

L464 992

L468 991

L462 991

C459 990 455 989 454 989

L452 988

L452 965

L452 942

L453 945

L454 948

L454 944

C456 930 467 901 477 885

C479 881 481 877 482 875

C483 873 488 868 492 863

L500 856

L501 857

C501 857 503 862 505 867

C506 871 510 882 513 890

C516 898 520 911 523 919

C527 934 527 934 527 959

C527 983 527 989 524 994

C523 996 522 996 503 996

C490 996 478 995 472 994

Z

M555 990

C555 987 553 983 553 982

C552 978 552 940 553 934

C555 926 560 910 568 886

C573 872 577 860 578 859

C578 857 579 855 580 855

C581 855 596 871 600 878

C615 905 620 920 626 945

C628 952 628 957 628 971

L628 988

L622 990

C619 990 615 991 613 992

L609 992

L611 993

L614 994

L604 995

C598 995 586 996 576 996

L557 996

L555 990

Z

M663 976

L662 975

L669 961

C677 944 681 933 685 918

C688 907 688 906 689 879

C689 854 688 839 685 822

L685 818

L687 818

C692 818 706 822 715 827

C733 835 744 849 750 871

C752 877 752 881 752 897

C752 915 751 925 747 939

C745 946 745 946 733 952

C718 959 697 967 680 973

C666 977 665 978 663 976

Z

M396 971

C378 966 356 956 341 949

C327 942 327 942 325 937

C322 925 321 914 321 897

C321 881 321 878 323 871

C329 849 340 835 358 826

C367 822 381 818 386 818

L388 818

L388 819

C388 819 387 824 386 829

C385 835 385 846 384 869

C384 897 384 900 386 910

C389 925 395 942 403 958

C408 970 409 972 408 973

C406 975 407 976 396 971

Z

M838 402

C838 401 839 394 840 386

C842 364 842 285 840 270

C836 250 831 229 824 208

L817 187

L819 185

L821 183

L825 186

C841 197 890 247 902 265

C903 266 904 269 904 272

L904 277

L905 272

L906 267

L906 295

L906 323

L905 316

L904 309

L904 314

C904 320 901 337 898 346

C891 369 878 387 861 397

C854 401 843 405 840 405

L838 405

L838 402

Z

M250 390

C221 380 203 354 196 314

C192 292 193 248 197 242

C198 240 209 229 221 217

C240 197 257 183 272 173

L277 169

L280 170

C281 171 282 172 282 172

C282 173 280 178 278 185

C269 208 263 232 259 254

C257 265 257 271 257 314

C257 348 257 364 259 374

C259 381 260 389 260 390

L260 392

L258 392

C257 392 254 391 250 390

Z

M485 277

C463 255 444 218 433 173

C431 167 430 161 430 160

L430 157

L429 160

L428 163

L428 130

C428 106 428 98 429 97

C430 96 449 92 467 88

L469 88

L468 87

L467 86

L478 85

C484 84 498 84 507 84

L525 85

L528 92

C529 96 530 102 531 105

L532 111

L533 108

L534 105

L534 137

C534 170 534 170 531 181

C527 198 522 213 514 235

C511 245 505 261 502 270

C499 279 496 287 495 287

C495 287 490 283 485 277

Z

M601 273

C577 205 571 187 568 161

C566 143 568 117 574 95

L576 88

L580 87

C591 86 633 94 660 101

L671 104

L671 125

C670 166 661 200 643 235

C634 252 625 265 614 276

L605 285

L601 273

Z

M735 283

C735 281 726 240 712 181

C706 152 700 125 699 122

C698 118 698 115 698 114

L699 114

L710 118

C722 123 757 140 768 146

C776 151 776 151 777 158

C782 178 782 195 778 214

C775 231 769 243 759 259

C754 267 739 284 737 284

L736 284

L735 283

Z

M353 272

C330 248 317 214 318 180

C319 167 321 155 324 144

C325 139 325 139 342 130

C364 120 400 106 402 107

C402 107 401 111 400 116

C399 120 391 153 383 189

C363 283 364 278 362 279

C360 279 358 277 353 272

Z

"/>

</svg>

